# xmcd
#
# Track frame offsets: 
#        182
#        14630
#        33075
#        51875
#        73200
#        91222
#        104115
#        122292
#        140880
#        160257
#        177050
#        194770
#        212380
#        232185
#        247850
#        259765
#
# Disc length: 3655 seconds
#
# Revision: 37
# Processed by: cddbd v1.5.2PL0 Copyright (c) Steve Scherf et al.
# Submitted via: ExactAudioCopy v1.3
#
DISCID=e60e4510
DTITLE=Cher - Cher's Greatest Hits - 1965-1992
DYEAR=1992
DGENRE=Pop/Rock
TTITLE0=Oh No Not My Baby
TTITLE1=Whenever You're Near
TTITLE2=Many Rivers To Cross - Live From The Mirage
TTITLE3=Love And Understanding
TTITLE4=Save Up All Your Tears
TTITLE5=The Shoop Shoop Song - It's In His Kiss
TTITLE6=If I Could Turn Back Time
TTITLE7=Just Like Jesse James
TTITLE8=Heart Of Stone
TTITLE9=I Found Someone
TTITLE10=We All Sleep Alone
TTITLE11=Bang Bang
TTITLE12=Dead Ringer For Love - With Meat Loaf
TTITLE13=Dark Lady
TTITLE14=Gypsys, Tramps and Thieves
TTITLE15=I Got You Babe - Sonny and Cher
EXTD=
EXTT0=
EXTT1=
EXTT2=
EXTT3=
EXTT4=
EXTT5=
EXTT6=
EXTT7=
EXTT8=
EXTT9=
EXTT10=
EXTT11=
EXTT12=
EXTT13=
EXTT14=
EXTT15=
PLAYORDER=
